# xmcd
#
# Track frame offsets:
#	150
#	13554
#	29411
#	42513
#	59182
#	72468
#	83774
#	97298
#	108463
#	117626
#	130916
#	143294
#	156102
#	167978
#	182220
#	192880
#	205524
#	219953
#	233914
#	244728
#
# Disc length: 3381 seconds
#
# Revision: 0
# Processed by: cddbd v1.5.2PL0 Copyright (c) Steve Scherf et al.
# Submitted via: audiograbber 1.83.01
#
DISCID=260d3314
DTITLE=bokstoa-musi and hochbeger soat'nmusi - zupft und blosn
DYEAR=2002
DGENRE=Folklore
TTITLE0=lechtaler marsch
TTITLE1=oband'ln
TTITLE2=132er
TTITLE3=da buzzibär
TTITLE4=immer gemüatlich
TTITLE5=brucker lager marsch
TTITLE6=a anz a g'fiariga
TTITLE7=schlenkerer
TTITLE8=hochzeits weis
TTITLE9=maridl
TTITLE10=claudia walzer
TTITLE11=hänggrab'n boarischer
TTITLE12=zupft und blosn
TTITLE13=mondnahcht
TTITLE14=lieferinger fischer boarischer
TTITLE15=bokstoa polka
TTITLE16=landler 249
TTITLE17=133iger
TTITLE18=bauernmarsch
TTITLE19=des jägers abschied
EXTD=
EXTT0=
EXTT1=
EXTT2=
EXTT3=
EXTT4=
EXTT5=
EXTT6=
EXTT7=
EXTT8=
EXTT9=
EXTT10=
EXTT11=
EXTT12=
EXTT13=
EXTT14=
EXTT15=
EXTT16=
EXTT17=
EXTT18=
EXTT19=
PLAYORDER=
